<svg width="487" height="119" viewBox="0 0 487 119" fill="none" xmlns="http://www.w3.org/2000/svg">
<path d="M66.0947 37.3633C66.0947 46.4258 61.7759 54.8477 34.3789 54.8477H32.7505C2.94678 54.8477 0.0439453 43.9492 0.0439453 36.5156V36.3008H23.2642C23.4766 38.1406 24.1138 41.7539 33.1753 41.7539H33.6001C42.3784 41.7539 43.582 39.6992 43.582 37.7891C43.582 35.6641 42.5908 34.1055 34.0957 33.8945L26.521 33.7539C5.84912 33.3984 0.893555 25.8945 0.893555 17.2578V16.6914C0.893555 7.0625 7.47754 0.550781 31.0518 0.550781H34.3789C60.856 0.550781 65.3159 9.47266 65.3159 17.6836V17.8242H42.5908C42.2373 15.9141 40.9629 13.2227 32.8921 13.2227H32.397C24.2554 13.2227 23.0522 14.7109 23.0522 16.7617C23.0522 18.8867 24.4678 20.0898 32.043 20.3008L39.8301 20.4453C61.2808 20.7969 66.0947 26.7461 66.0947 36.5156V37.3633Z" fill="black"/>
<path d="M112.937 54H91.4155V17.2578H69.894V1.32812H134.458V17.2578H112.937V54Z" fill="black"/>
<path fill-rule="evenodd" clip-rule="evenodd" d="M209.563 16.2656C209.563 24.2656 203.05 27.5234 197.387 28.6562C203.97 29.4336 210.059 32.1953 210.059 40.5508V50.2461C210.059 52.3008 210.342 53.0078 210.837 53.6445V54H188.608C188.396 53.7188 188.184 52.8672 188.184 50.957V46.4961C188.184 39.6992 185.847 38.3555 178.272 38.3555H162.839V54H141.248V1.32812H187.688C206.661 1.32812 209.563 8.41016 209.563 15.9141V16.2656ZM181.883 15.8438H162.839V23.5586H181.883C186.343 23.5586 187.192 21.5781 187.192 19.5938V19.5234C187.192 17.6836 186.343 15.8438 181.883 15.8438Z" fill="black"/>
<path d="M217.729 54V1.32812H272.807V14.7812H239.392V20.4453H271.745V34.25H239.392V40.4062H273.302V54H217.729Z" fill="black"/>
<path d="M281.214 54V1.32812H336.292V14.7812H302.877V20.4453H335.229V34.25H302.877V40.4062H336.787V54H281.214Z" fill="black"/>
<path d="M385.334 54H363.813V17.2578H342.292V1.32812H406.855V17.2578H385.334V54Z" fill="black"/>
<path d="M72.3242 96.7617C72.3242 104.195 68.5015 118.922 37.8477 118.922H34.6621C5.56592 118.922 0.327148 102.637 0.327148 92.5859V90.4609C0.327148 80.4102 5.49512 64.4102 34.6621 64.4102H37.8477C68.5015 64.4102 72.3242 78.2148 72.3242 86.5664V87.3477H49.8828L49.8618 87.2305C49.6167 85.8438 48.5811 79.9844 36.2905 79.9844C24.4678 79.9844 22.9106 87.0625 22.9106 91.0273V91.8047C22.9106 95.9844 24.6802 103.062 36.3613 103.062C48.8916 103.062 49.6704 96.832 49.8828 95.9141H72.3242V96.7617Z" fill="black"/>
<path d="M148.665 89.5391C148.665 99.875 146.258 118.777 115.108 118.777H112.914C80.561 118.777 78.9331 99.875 78.9331 89.5391V65.3281H100.454V89.5391C100.454 95.5586 102.72 101.574 113.834 101.574H114.117C124.949 101.574 127.144 95.5586 127.144 89.5391V65.3281H148.665V89.5391Z" fill="black"/>
<path d="M157.632 118V65.3281H179.224V101.574H210.374V118H157.632Z" fill="black"/>
<path d="M247.373 118H225.851V81.2578H204.33V65.3281H268.894V81.2578H247.373V118Z" fill="black"/>
<path d="M345.202 89.5391C345.202 99.875 342.795 118.777 311.646 118.777H309.452C277.099 118.777 275.471 99.875 275.471 89.5391V65.3281H296.992V89.5391C296.992 95.5586 299.257 101.574 310.372 101.574H310.655C321.486 101.574 323.681 95.5586 323.681 89.5391V65.3281H345.202V89.5391Z" fill="black"/>
<path fill-rule="evenodd" clip-rule="evenodd" d="M422.486 80.2656C422.486 88.2656 415.973 91.5234 410.309 92.6562C416.893 93.4336 422.981 96.1953 422.981 104.551V114.246C422.981 116.301 423.264 117.008 423.76 117.645V118H401.531C401.318 117.719 401.106 116.867 401.106 114.957V110.496C401.106 103.699 398.77 102.355 391.195 102.355H375.762V118H354.17V65.3281H400.61C419.583 65.3281 422.486 72.4102 422.486 79.9141V80.2656ZM394.805 79.8438H375.762V87.5586H394.805C399.266 87.5586 400.115 85.5781 400.115 83.5938V83.5234C400.115 81.6836 399.266 79.8438 394.805 79.8438Z" fill="black"/>
<path d="M430.652 118V65.3281H485.729V78.7812H452.314V84.4453H484.667V98.25H452.314V104.406H486.225V118H430.652Z" fill="black"/>
</svg>
