<svg
                xmlns="http://www.w3.org/2000/svg"
                width="24"
                height="24"
                viewBox="0 0 24 24"
                fill="none"
              >
                <path
                  d="M23.25 18.2503V2.00028C23.25 1.66876 23.1183 1.35081 22.8839 1.11639C22.6494 0.881973 22.3315 0.750278 22 0.750278H5.74996C5.41844 0.750278 5.1005 0.881973 4.86608 1.11639C4.63166 1.35081 4.49996 1.66876 4.49996 2.00028C4.49996 2.3318 4.63166 2.64974 4.86608 2.88416C5.1005 3.11858 5.41844 3.25028 5.74996 3.25028H18.9828L1.11559 21.1159C0.881037 21.3505 0.749268 21.6686 0.749268 22.0003C0.749268 22.332 0.881037 22.6501 1.11559 22.8847C1.35014 23.1192 1.66826 23.251 1.99996 23.251C2.33167 23.251 2.64979 23.1192 2.88434 22.8847L20.75 5.01747V18.2503C20.75 18.5818 20.8817 18.8997 21.1161 19.1342C21.3505 19.3686 21.6684 19.5003 22 19.5003C22.3315 19.5003 22.6494 19.3686 22.8839 19.1342C23.1183 18.8997 23.25 18.5818 23.25 18.2503Z"
                  fill="white"
                />
              </svg>