<svg width="24" height="24" viewBox="0 0 24 24" fill="none" xmlns="http://www.w3.org/2000/svg">
<g clip-path="url(#clip0_2007_3603)">
<path d="M18.3246 5.92511C18.713 5.92511 19.0278 5.61017 19.0278 5.22198V0.703125C19.0278 0.314758 18.713 0 18.3246 0H13.0525C10.5884 0 8.5838 2.00464 8.5838 4.46869V9.03754H5.67188C5.28351 9.03754 4.96875 9.35229 4.96875 9.74066V14.2593C4.96875 14.6477 5.28351 14.9625 5.67188 14.9625H8.5838V23.2969C8.5838 23.6852 8.89856 24 9.28693 24H13.8058C14.1942 24 14.5089 23.6852 14.5089 23.2969V14.9625H17.4208C17.7561 14.9625 18.0447 14.7259 18.1104 14.3972L19.014 9.87854C19.0554 9.672 19.002 9.45776 18.8683 9.2948C18.7348 9.13202 18.5352 9.03754 18.3246 9.03754H14.5089V5.92511H18.3246ZM13.8058 10.4438H17.467L16.8444 13.5562H13.8058C13.4174 13.5562 13.1027 13.871 13.1027 14.2593V22.5938H9.99005V14.2593C9.99005 13.871 9.67529 13.5562 9.28693 13.5562H6.375V10.4438H9.28693C9.67529 10.4438 9.99005 10.129 9.99005 9.74066V4.46869C9.99005 2.78009 11.3639 1.40625 13.0525 1.40625H17.6215V4.51886H13.8058C13.4174 4.51886 13.1027 4.83362 13.1027 5.22198V9.74066C13.1027 10.129 13.4174 10.4438 13.8058 10.4438Z" fill="black"/>
</g>
<defs>
<clipPath id="clip0_2007_3603">
<rect width="24" height="24" fill="white"/>
</clipPath>
</defs>
</svg>
