<svg width="24" height="24" viewBox="0 0 48 48" fill="none" xmlns="http://www.w3.org/2000/svg">
<path d="M4.52715 4.52877L4.52876 4.52715C6.22887 2.82316 8.40814 1.92656 11.5372 1.46699C14.7001 1.00245 18.7058 1 23.9956 1C29.2854 1 33.2914 1.00243 36.4556 1.46596C39.5856 1.92447 41.7676 2.81906 43.472 4.51926C45.1767 6.22396 46.0734 8.40594 46.533 11.536C46.9976 14.7001 47 18.7058 47 23.9956C47 29.2855 46.9976 33.2912 46.533 36.4553C46.0734 39.5854 45.1767 41.7673 43.472 43.472C41.7675 45.1766 39.5835 46.0734 36.4521 46.533C33.2869 46.9976 29.2811 47 23.9956 47C18.7102 47 14.7044 46.9976 11.5404 46.533C8.41 46.0734 6.22872 45.1767 4.52877 43.4729L4.52796 43.472C2.82341 41.7675 1.92662 39.5835 1.46701 36.4521C1.00244 33.2869 1 29.2811 1 23.9956C1 18.7102 1.00244 14.7044 1.467 11.5404C1.92661 8.41 2.82332 6.22872 4.52715 4.52877Z" stroke="black" stroke-width="2"/>
<path d="M21.2071 37.3333V26.0026H17.3334V21.5H21.2071V17.9523C21.2071 14.0979 23.6112 12 27.1213 12C28.8031 12 30.2475 12.1237 30.6667 12.1781V16.2057H28.2324C26.3233 16.2057 25.9546 17.0964 25.9546 18.3977V21.5H30.2627L29.6718 26.0026H25.9546V37.3333" fill="black"/>
</svg>
