<svg width="24" height="24" viewBox="0 0 24 24" fill="none" xmlns="http://www.w3.org/2000/svg">
<g clip-path="url(#clip0_2007_3609)">
<path d="M12 5.64844C8.49774 5.64844 5.64844 8.49774 5.64844 12C5.64844 15.5023 8.49774 18.3516 12 18.3516C15.5023 18.3516 18.3516 15.5023 18.3516 12C18.3516 8.49774 15.5023 5.64844 12 5.64844ZM12 16.9453C9.27319 16.9453 7.05469 14.7268 7.05469 12C7.05469 9.27319 9.27319 7.05469 12 7.05469C14.727 7.05469 16.9453 9.27319 16.9453 12C16.9453 14.7268 14.727 16.9453 12 16.9453Z" fill="black"/>
<path d="M21.5817 2.41827C20.0224 0.858765 17.9568 0 15.7657 0H8.23425C6.04321 0 3.9776 0.858765 2.41827 2.41827C0.858765 3.9776 0 6.04321 0 8.23425V15.7656C0 17.9568 0.858765 20.0224 2.41827 21.5817C3.9776 23.1412 6.04321 24 8.23425 24H15.7657C17.9568 24 20.0224 23.1412 21.5817 21.5817C23.1412 20.0224 24 17.9568 24 15.7656V8.23425C24 6.04321 23.1412 3.9776 21.5817 2.41827ZM22.5938 15.7656C22.5938 19.5306 19.5306 22.5938 15.7657 22.5938H8.23425C4.46942 22.5938 1.40625 19.5306 1.40625 15.7656V8.23425C1.40625 4.46942 4.46942 1.40625 8.23425 1.40625H15.7657C19.5306 1.40625 22.5938 4.46942 22.5938 8.23425V15.7656Z" fill="black"/>
<path d="M18.5396 4.75781C18.3542 4.75781 18.173 4.83325 18.0421 4.96417C17.9113 5.09491 17.8364 5.27637 17.8364 5.46094C17.8364 5.64606 17.9113 5.82751 18.0421 5.95825C18.173 6.08917 18.3542 6.16406 18.5396 6.16406C18.7241 6.16406 18.9056 6.08917 19.0363 5.95825C19.1671 5.82751 19.2427 5.64606 19.2427 5.46094C19.2427 5.27637 19.1671 5.09491 19.0363 4.96417C18.9056 4.83344 18.7241 4.75781 18.5396 4.75781Z" fill="black"/>
</g>
<defs>
<clipPath id="clip0_2007_3609">
<rect width="24" height="24" fill="white"/>
</clipPath>
</defs>
</svg>
