<svg width="24" height="24" viewBox="0 0 24 24" fill="none" xmlns="http://www.w3.org/2000/svg">
<g clip-path="url(#clip0_2007_3614)">
<path d="M16.2787 10.5195L10.6094 7.68469C10.2736 7.51678 9.93817 7.43164 9.61224 7.43164C8.60864 7.43164 7.90771 8.22229 7.90771 9.35443V14.6262C7.90771 15.7584 8.60864 16.549 9.61224 16.549C9.93817 16.549 10.2736 16.4639 10.6094 16.296L16.2787 13.4613C16.9672 13.1171 17.362 12.5809 17.362 11.9902C17.362 11.3997 16.9672 10.8638 16.2787 10.5195ZM15.6498 12.2036L9.98047 15.0382C9.8078 15.1246 9.68494 15.1428 9.61224 15.1428C9.36578 15.1428 9.31396 14.8619 9.31396 14.6262V9.35443C9.31396 9.11877 9.36578 8.83807 9.61224 8.83807C9.68494 8.83807 9.8078 8.8562 9.98047 8.94244L15.65 11.7775C15.8248 11.8648 15.9109 11.947 15.9438 11.9904C15.9109 12.0338 15.8248 12.116 15.6498 12.2036Z" fill="black"/>
<path d="M21.4142 2.25H2.58582C1.15997 2.25 0 3.40997 0 4.83582V19.1453C0 20.5712 1.15997 21.7313 2.58582 21.7313H21.4142C22.84 21.7313 24 20.5712 24 19.1453V4.83582C24 3.40997 22.84 2.25 21.4142 2.25ZM22.5938 19.1453C22.5938 19.7957 22.0646 20.3251 21.4142 20.3251H2.58582C1.93542 20.3251 1.40625 19.7957 1.40625 19.1453V4.83582C1.40625 4.18542 1.93542 3.65625 2.58582 3.65625H21.4142C22.0646 3.65625 22.5938 4.18542 22.5938 4.83582V19.1453Z" fill="black"/>
</g>
<defs>
<clipPath id="clip0_2007_3614">
<rect width="24" height="24" fill="white"/>
</clipPath>
</defs>
</svg>
