<svg width="24" height="24" viewBox="0 0 48 48" fill="none" xmlns="http://www.w3.org/2000/svg">
<path d="M4.52715 4.52877L4.52876 4.52715C6.22887 2.82316 8.40814 1.92656 11.5372 1.46699C14.7001 1.00245 18.7058 1 23.9956 1C29.2854 1 33.2914 1.00243 36.4556 1.46596C39.5856 1.92447 41.7676 2.81906 43.472 4.51926C45.1767 6.22396 46.0734 8.40594 46.533 11.536C46.9976 14.7001 47 18.7058 47 23.9956C47 29.2855 46.9976 33.2912 46.533 36.4553C46.0734 39.5854 45.1767 41.7673 43.472 43.472C41.7675 45.1766 39.5835 46.0734 36.4521 46.533C33.2869 46.9976 29.2811 47 23.9956 47C18.7102 47 14.7044 46.9976 11.5404 46.533C8.41 46.0734 6.22872 45.1767 4.52877 43.4729L4.52796 43.472C2.82341 41.7675 1.92662 39.5835 1.46701 36.4521C1.00244 33.2869 1 29.2811 1 23.9956C1 18.7102 1.00244 14.7044 1.467 11.5404C1.92661 8.41 2.82332 6.22872 4.52715 4.52877Z" stroke="black" stroke-width="2"/>
<path fill-rule="evenodd" clip-rule="evenodd" d="M35.4771 14.3743C36.7335 14.7127 37.7242 15.7032 38.0624 16.9598C38.6908 19.255 38.6666 24.0393 38.6666 24.0393C38.6666 24.0393 38.6666 28.7992 38.0626 31.0947C37.7242 32.3511 36.7337 33.3418 35.4771 33.68C33.1816 34.2842 24 34.2842 24 34.2842C24 34.2842 14.8423 34.2842 12.5229 33.656C11.2663 33.3176 10.2758 32.3269 9.9374 31.0705C9.33337 28.7992 9.33337 24.0151 9.33337 24.0151C9.33337 24.0151 9.33337 19.255 9.9374 16.9598C10.2756 15.7034 11.2905 14.6885 12.5227 14.3503C14.8181 13.7461 23.9998 13.7461 23.9998 13.7461C23.9998 13.7461 33.1816 13.7461 35.4771 14.3743ZM28.7113 24.0154L21.076 28.413V19.6178L28.7113 24.0154Z" fill="black"/>
</svg>
