<svg width="24" height="24" viewBox="0 0 24 24" fill="none" xmlns="http://www.w3.org/2000/svg">
<rect width="24" height="24" rx="12" fill="#E20119"/>
<path d="M18.354 8.85372L10.354 16.8537C10.3076 16.9002 10.2524 16.9371 10.1917 16.9623C10.131 16.9874 10.066 17.0004 10.0003 17.0004C9.93457 17.0004 9.86951 16.9874 9.80881 16.9623C9.74811 16.9371 9.69296 16.9002 9.64653 16.8537L6.14653 13.3537C6.05271 13.2599 6 13.1327 6 13C6 12.8673 6.05271 12.74 6.14653 12.6462C6.24035 12.5524 6.3676 12.4997 6.50028 12.4997C6.63296 12.4997 6.76021 12.5524 6.85403 12.6462L10.0003 15.7931L17.6465 8.14622C17.7403 8.0524 17.8676 7.99969 18.0003 7.99969C18.133 7.99969 18.2602 8.0524 18.354 8.14622C18.4478 8.24004 18.5006 8.36729 18.5006 8.49997C18.5006 8.63265 18.4478 8.7599 18.354 8.85372Z" fill="white"/>
</svg>
